# xmcd
#
# Track frame offsets:
#	150
#	16395
#	26233
#	40423
#	53459
#	65465
#	86488
#	100518
#	114524
#	121874
#	129713
#	142768
#	155741
#	166733
#	179732
#	201782
#	211872
#
# Disc length: 3063 seconds
#
# Revision: 1
# Processed by: cddbd v1.5.2PL0 Copyright (c) Steve Scherf et al.
# Submitted via: EasyCDDAExtractor 10.5.1.1
#
DISCID=e20bf511
DTITLE=Waylon Jennings - Live From Austin, Tx
DYEAR=2006
DGENRE=Country
TTITLE0=I'm Ramblin' Man
TTITLE1=Rainy Day Woman
TTITLE2=America
TTITLE3=I May Be Used (But Baby I Ain't Used Up)
TTITLE4=Amanda
TTITLE5=Me And Bobby Mcgee
TTITLE6=Trouble Man
TTITLE7=Mama's Don't Let Your Babies Grow Up To Be Cowboys
TTITLE8=Good Ol' Boys (Dukes Of Hazzard)
TTITLE9=Bob Wills Is Still The King
TTITLE10=Are You Sure Hank Done It This Way
TTITLE11=Suspicious Minds w/ Jesse Colter
TTITLE12=Honky Tonk Angels w/ Jesse Colter
TTITLE13=Good Hearted Woman
TTITLE14=I've Always Been Crazy
TTITLE15=Luckenbach,Texas
TTITLE16=I Ain't Living Long Like This
EXTD=
EXTT0=
EXTT1=
EXTT2=
EXTT3=
EXTT4=
EXTT5=
EXTT6=
EXTT7=
EXTT8=
EXTT9=
EXTT10=
EXTT11=
EXTT12=
EXTT13=
EXTT14=
EXTT15=
EXTT16=
PLAYORDER=
